<svg id="b" xmlns="http://www.w3.org/2000/svg" width="153.635" height="153.551" viewBox="0 0 153.635 153.551">
  <g id="c" transform="translate(0 0)">
    <g id="d">
      <g id="e">
        <path id="Tracé_3" data-name="Tracé 3" d="M136.747,122.1A25.956,25.956,0,0,1,122.13,136.69c-10.107,4.026-34.117,3.169-45.309,3.169s-35.2.914-45.28-3.083a25.872,25.872,0,0,1-14.618-14.589c-4-10.135-3.083-34.26-3.083-45.309s-.885-35.288,3.083-45.366A25.921,25.921,0,0,1,31.541,16.895c10.107-4,34.26-3.083,45.28-3.083s35.231-.885,45.309,3.083a26.089,26.089,0,0,1,14.618,14.618c4,10.107,3.112,34.117,3.112,45.28s.914,35.231-3.083,45.309m16.388-77.085c-.6-12.305-3.4-23.211-12.419-32.176S120.817,1.135,108.455.507,57.807-.206,45.1.507C32.826,1.078,21.948,3.9,12.926,12.9S1.135,32.769.507,45.074s-.714,50.7,0,63.381,3.4,23.211,12.419,32.2S32.911,152.45,45.1,153.049s50.733.742,63.409,0,23.211-3.4,32.2-12.391,11.791-19.985,12.419-32.2.714-50.676,0-63.381M127.04,35.766a9.165,9.165,0,1,1,0-.057v.057M76.821,102.4a25.695,25.695,0,1,1,25.695-25.695h0A25.7,25.7,0,0,1,76.821,102.4m0-65.008a39.4,39.4,0,1,0,39.4,39.4h0a39.344,39.344,0,0,0-39.285-39.4h-.114" transform="translate(-0.004 -0.004)" fill="#fff"/>
      </g>
    </g>
  </g>
</svg>
