<svg id="b" xmlns="http://www.w3.org/2000/svg" width="268" height="115.5" viewBox="0 0 268 115.5">
  <g id="c">
    <g id="Groupe_12" data-name="Groupe 12">
      <path id="Tracé_6" data-name="Tracé 6" d="M12.18,1H231.47A35.546,35.546,0,0,1,267,36.53v66.79a11.186,11.186,0,0,1-11.18,11.18H12.18A11.186,11.186,0,0,1,1,103.32V12.18A11.186,11.186,0,0,1,12.18,1Z" fill="#fff" stroke="#d0d0d0" stroke-width="2"/>
      <g id="Groupe_8" data-name="Groupe 8">
        <path id="Tracé_7" data-name="Tracé 7" d="M233.08,7.99a27.36,27.36,0,1,0,27.39,27.36A27.35,27.35,0,0,0,233.08,7.99Z" fill="#69a341"/>
        <path id="Tracé_8" data-name="Tracé 8" d="M251,49h-6.73V28.6H251ZM214,30.3a3.389,3.389,0,0,1,3.36-3.4h10.61l-1.6-7.77-.05-.54a2.582,2.582,0,0,1,.74-1.8l1.78-1.78,11.07,11.2a3.344,3.344,0,0,1,.99,2.4v17a3.389,3.389,0,0,1-3.36,3.4H222.4a3.328,3.328,0,0,1-3.09-2.07l-5.08-11.99a3.421,3.421,0,0,1-.24-1.24v-3.4Z" fill="#fff"/>
      </g>
      <g id="Groupe_10" data-name="Groupe 10">
        <rect id="Rectangle_10" data-name="Rectangle 10" width="252" height="39" rx="2.29" transform="translate(7 69)" fill="#69a341"/>
        <g id="Groupe_9" data-name="Groupe 9">
          <path id="Tracé_9" data-name="Tracé 9" d="M22.9,80.82v3.89H21.13V80.68a1.746,1.746,0,0,0-.18-.86.915.915,0,0,0-.9-.46,1.237,1.237,0,0,0-1.04.46,2.149,2.149,0,0,0-.36,1.31v3.59H16.92V75.78h1.73v3.17a2.148,2.148,0,0,1,.87-.81,2.355,2.355,0,0,1,1.04-.23,2.9,2.9,0,0,1,1.12.21,1.936,1.936,0,0,1,.82.65,1.75,1.75,0,0,1,.33.76,9.526,9.526,0,0,1,.06,1.28Z" fill="#fff"/>
          <path id="Tracé_10" data-name="Tracé 10" d="M24.77,78.8a2.853,2.853,0,0,1,2.36-.88,4.2,4.2,0,0,1,1.94.43,1.667,1.667,0,0,1,.85,1.63v3.04c0,.21,0,.47.01.77a1,1,0,0,0,.1.46.6.6,0,0,0,.26.2v.25H28.4a2.006,2.006,0,0,1-.11-.38,3.961,3.961,0,0,1-.05-.4,3.55,3.55,0,0,1-.83.66,2.521,2.521,0,0,1-1.27.32,2.191,2.191,0,0,1-1.49-.51,1.84,1.84,0,0,1-.59-1.46A1.876,1.876,0,0,1,25,81.16a4.21,4.21,0,0,1,1.52-.43l.59-.07a2.792,2.792,0,0,0,.69-.15.52.52,0,0,0,.37-.49.574.574,0,0,0-.28-.56,1.836,1.836,0,0,0-.83-.15,1.09,1.09,0,0,0-.87.3,1.262,1.262,0,0,0-.24.61H24.28a2.55,2.55,0,0,1,.49-1.43Zm1.29,4.66a.924.924,0,0,0,.6.2,1.754,1.754,0,0,0,1.03-.33,1.411,1.411,0,0,0,.49-1.2v-.65a2.585,2.585,0,0,1-.33.17,3.258,3.258,0,0,1-.46.12l-.39.07a2.24,2.24,0,0,0-.79.24.79.79,0,0,0-.4.74.749.749,0,0,0,.25.64Z" fill="#fff"/>
          <path id="Tracé_11" data-name="Tracé 11" d="M37.54,84.72H35.45l-1.59-2.84-.72.75v2.09h-1.7V75.78h1.7v4.83l2.16-2.5h2.15l-2.32,2.54Z" fill="#fff"/>
          <path id="Tracé_12" data-name="Tracé 12" d="M40.17,75.69v1.6H38.41v-1.6Zm0,2.39v6.63H38.41V78.08Z" fill="#fff"/>
          <path id="Tracé_13" data-name="Tracé 13" d="M41.88,75.75h1.73v8.97H41.88Z" fill="#fff"/>
          <path id="Tracé_14" data-name="Tracé 14" d="M47.09,75.69v1.6H45.33v-1.6Zm0,2.39v6.63H45.33V78.08Z" fill="#fff"/>
          <path id="Tracé_15" data-name="Tracé 15" d="M54.81,75.76v8.96H53.12V83.8a2.5,2.5,0,0,1-.85.86,2.367,2.367,0,0,1-1.18.27,2.47,2.47,0,0,1-1.96-.94,3.606,3.606,0,0,1-.79-2.41,4.161,4.161,0,0,1,.78-2.67,2.539,2.539,0,0,1,2.09-.97,2.2,2.2,0,0,1,1.07.26,2.126,2.126,0,0,1,.76.73V75.76H54.8Zm-4.67,5.68a2.583,2.583,0,0,0,.37,1.47,1.21,1.21,0,0,0,1.1.55,1.266,1.266,0,0,0,1.12-.55,2.4,2.4,0,0,0,.38-1.42,2.175,2.175,0,0,0-.61-1.74,1.324,1.324,0,0,0-.88-.32,1.214,1.214,0,0,0-1.12.58,2.639,2.639,0,0,0-.36,1.43Z" fill="#fff"/>
          <path id="Tracé_16" data-name="Tracé 16" d="M62.06,82.77a2.222,2.222,0,0,1-.61,1.2,3,3,0,0,1-2.39.97,3.325,3.325,0,0,1-2.23-.82,3.268,3.268,0,0,1-.97-2.65,3.686,3.686,0,0,1,.87-2.64A3,3,0,0,1,59,77.91a3.426,3.426,0,0,1,1.49.31,2.644,2.644,0,0,1,1.1.98,3.218,3.218,0,0,1,.5,1.37,10.711,10.711,0,0,1,.06,1.31H57.61a1.62,1.62,0,0,0,.63,1.4,1.453,1.453,0,0,0,.86.25,1.243,1.243,0,0,0,.87-.3,1.383,1.383,0,0,0,.32-.46Zm-1.72-2.03a1.49,1.49,0,0,0-.42-1.04,1.334,1.334,0,0,0-.93-.36,1.176,1.176,0,0,0-.93.38,1.9,1.9,0,0,0-.42,1.02h2.7Z" fill="#fff"/>
          <path id="Tracé_17" data-name="Tracé 17" d="M67.88,78.39a2.119,2.119,0,0,1,.89,1.72H67.04a1.014,1.014,0,0,0-.19-.53,1.173,1.173,0,0,0-.97-.35,1.384,1.384,0,0,0-.81.18.5.5,0,0,0-.24.41.454.454,0,0,0,.26.43,11.707,11.707,0,0,0,1.81.48,3.255,3.255,0,0,1,1.55.74,1.674,1.674,0,0,1,.51,1.25,2.012,2.012,0,0,1-.73,1.61,4.418,4.418,0,0,1-4.58-.04,2.139,2.139,0,0,1-.75-1.68h1.76a1.2,1.2,0,0,0,.24.66,1.61,1.61,0,0,0,1.19.35,1.829,1.829,0,0,0,.81-.15.484.484,0,0,0,.3-.46.5.5,0,0,0-.24-.45,9.311,9.311,0,0,0-1.81-.52,3.829,3.829,0,0,1-1.59-.7,1.509,1.509,0,0,1-.46-1.19,2.075,2.075,0,0,1,.72-1.58,2.9,2.9,0,0,1,2.03-.66,3.768,3.768,0,0,1,2.03.49Z" fill="#fff"/>
          <path id="Tracé_18" data-name="Tracé 18" d="M72.03,75.69v1.6H70.27v-1.6Zm0,2.39v6.63H70.27V78.08Z" fill="#fff"/>
          <path id="Tracé_19" data-name="Tracé 19" d="M75.58,85.88a1.454,1.454,0,0,0,.94.24,1.263,1.263,0,0,0,1.25-.63,3.143,3.143,0,0,0,.21-1.35v-.43a2.218,2.218,0,0,1-.54.64,2.157,2.157,0,0,1-1.34.4,2.543,2.543,0,0,1-2.04-.9,3.627,3.627,0,0,1-.76-2.43,4.065,4.065,0,0,1,.74-2.49,2.443,2.443,0,0,1,2.09-1.01,2.332,2.332,0,0,1,.87.15,2.141,2.141,0,0,1,1.02.96v-.96h1.69v6.29a3.531,3.531,0,0,1-.43,1.94,3.161,3.161,0,0,1-2.85,1.12,3.929,3.929,0,0,1-2.08-.5,1.836,1.836,0,0,1-.89-1.49h1.89a.807.807,0,0,0,.24.44Zm-.29-3.43a1.277,1.277,0,0,0,1.27.84,1.325,1.325,0,0,0,1.03-.46,2.122,2.122,0,0,0,.42-1.46,2.226,2.226,0,0,0-.4-1.44,1.3,1.3,0,0,0-1.07-.49,1.261,1.261,0,0,0-1.26.86,3.076,3.076,0,0,0-.18,1.13,2.591,2.591,0,0,0,.19,1.03Z" fill="#fff"/>
          <path id="Tracé_20" data-name="Tracé 20" d="M84.44,79.37a1.205,1.205,0,0,0-1.21.75,2.624,2.624,0,0,0-.17,1.01v3.59H81.33V78.1H83v.97a2.9,2.9,0,0,1,.63-.74,2.195,2.195,0,0,1,1.36-.4,2.529,2.529,0,0,1,1.68.54,2.221,2.221,0,0,1,.65,1.79v4.47H85.54V80.7a1.85,1.85,0,0,0-.14-.8.987.987,0,0,0-.97-.51Z" fill="#fff"/>
          <path id="Tracé_21" data-name="Tracé 21" d="M88.9,82.9h1.84v1.81H88.9Z" fill="#fff"/>
          <path id="Tracé_22" data-name="Tracé 22" d="M95.51,75.69V77.1c-.1-.01-.26-.02-.49-.03s-.39.04-.47.15a.551.551,0,0,0-.13.36v.56h1.14v1.22H94.42v5.35H92.69V79.36h-.97V78.14h.95v-.43a2.252,2.252,0,0,1,.36-1.47c.25-.4.86-.6,1.82-.6h.3c.09,0,.21.02.37.03Z" fill="#fff"/>
          <path id="Tracé_23" data-name="Tracé 23" d="M99.88,79.68a1.451,1.451,0,0,0-1.41.68,2.725,2.725,0,0,0-.2,1.18v3.17H96.52V78.08h1.66v1.16a3.722,3.722,0,0,1,.7-.91,1.918,1.918,0,0,1,1.27-.41h.23V79.7c-.11-.01-.21-.02-.29-.02Z" fill="#fff"/>
          <path id="Tracé_24" data-name="Tracé 24" d="M20.4,96.79a.577.577,0,0,0,.5-.32.964.964,0,0,0,.07-.42.9.9,0,0,0-.4-.82,2.143,2.143,0,0,0-1.14-.25,1.449,1.449,0,0,0-1.21.46,1.576,1.576,0,0,0-.26.76H16.94a1.876,1.876,0,0,1,.78-1.68,3.151,3.151,0,0,1,1.74-.47,3.569,3.569,0,0,1,1.87.44,1.494,1.494,0,0,1,.71,1.36V99.6a.433.433,0,0,0,.07.27.339.339,0,0,0,.29.1h.16a1.25,1.25,0,0,0,.19-.03v.81a2.48,2.48,0,0,1-.39.09,3.262,3.262,0,0,1-.37.02.889.889,0,0,1-.82-.4,1.568,1.568,0,0,1-.19-.6,2.7,2.7,0,0,1-.96.76,3.045,3.045,0,0,1-1.38.32,2.039,2.039,0,0,1-1.48-.55,1.857,1.857,0,0,1-.58-1.38,1.759,1.759,0,0,1,.57-1.4A2.658,2.658,0,0,1,18.63,97l1.75-.22Zm-2.31,2.96a1.3,1.3,0,0,0,.82.27,2.465,2.465,0,0,0,1.12-.27,1.494,1.494,0,0,0,.91-1.45v-.88a1.566,1.566,0,0,1-.52.21,4.83,4.83,0,0,1-.62.12l-.66.08a2.581,2.581,0,0,0-.9.25.963.963,0,0,0-.51.91.916.916,0,0,0,.35.75Z" fill="#fff"/>
          <path id="Tracé_25" data-name="Tracé 25" d="M31.32,94.4a2.581,2.581,0,0,1,.99.84,3,3,0,0,1,.44,1.15,7.929,7.929,0,0,1,.1,1.44H28.11a2.914,2.914,0,0,0,.46,1.6,1.556,1.556,0,0,0,1.35.6,1.73,1.73,0,0,0,1.36-.57,1.916,1.916,0,0,0,.4-.76h1.08a2.261,2.261,0,0,1-.28.8,2.766,2.766,0,0,1-.54.72,2.539,2.539,0,0,1-1.23.66,3.966,3.966,0,0,1-.89.1,2.683,2.683,0,0,1-2.05-.89,3.465,3.465,0,0,1-.84-2.48,3.707,3.707,0,0,1,.85-2.55,2.8,2.8,0,0,1,2.21-.98,2.916,2.916,0,0,1,1.34.33Zm.39,2.56a2.862,2.862,0,0,0-.31-1.14,1.566,1.566,0,0,0-1.49-.79,1.628,1.628,0,0,0-1.25.54,2.09,2.09,0,0,0-.54,1.38h3.59Zm-.44-5.36-1.62,1.76h-.84l1.11-1.76Z" fill="#fff"/>
          <path id="Tracé_26" data-name="Tracé 26" d="M34.45,92.4h1.11v1.82H36.6v.89H35.56v4.25a.472.472,0,0,0,.23.46,1.084,1.084,0,0,0,.43.07h.17a.822.822,0,0,0,.21-.02v.87a2.7,2.7,0,0,1-.39.08,3.026,3.026,0,0,1-.44.02,1.19,1.19,0,0,1-1.04-.39,1.757,1.757,0,0,1-.27-1.02V95.12h-.88v-.89h.88V92.41Z" fill="#fff"/>
          <path id="Tracé_27" data-name="Tracé 27" d="M41.71,94.4a2.581,2.581,0,0,1,.99.84,3,3,0,0,1,.44,1.15,7.929,7.929,0,0,1,.1,1.44H38.5a2.914,2.914,0,0,0,.46,1.6,1.556,1.556,0,0,0,1.35.6,1.73,1.73,0,0,0,1.36-.57,1.916,1.916,0,0,0,.4-.76h1.08a2.261,2.261,0,0,1-.28.8,2.766,2.766,0,0,1-.54.72,2.539,2.539,0,0,1-1.23.66,3.966,3.966,0,0,1-.89.1,2.683,2.683,0,0,1-2.05-.89,3.465,3.465,0,0,1-.84-2.48,3.707,3.707,0,0,1,.85-2.55,2.8,2.8,0,0,1,2.21-.98,2.916,2.916,0,0,1,1.34.33Zm.39,2.56a2.862,2.862,0,0,0-.31-1.14,1.566,1.566,0,0,0-1.49-.79,1.628,1.628,0,0,0-1.25.54,2.09,2.09,0,0,0-.54,1.38H42.1Zm-.44-5.36-1.62,1.76H39.2l1.11-1.76Z" fill="#fff"/>
          <path id="Tracé_28" data-name="Tracé 28" d="M52.11,94.4a2.581,2.581,0,0,1,.99.84,3,3,0,0,1,.44,1.15,7.929,7.929,0,0,1,.1,1.44H48.9a2.914,2.914,0,0,0,.46,1.6,1.556,1.556,0,0,0,1.35.6,1.73,1.73,0,0,0,1.36-.57,1.916,1.916,0,0,0,.4-.76h1.08a2.261,2.261,0,0,1-.28.8,2.766,2.766,0,0,1-.54.72,2.539,2.539,0,0,1-1.23.66,3.966,3.966,0,0,1-.89.1,2.683,2.683,0,0,1-2.05-.89,3.465,3.465,0,0,1-.84-2.48,3.707,3.707,0,0,1,.85-2.55,2.8,2.8,0,0,1,2.21-.98,2.916,2.916,0,0,1,1.34.33Zm.39,2.56a2.862,2.862,0,0,0-.31-1.14,1.566,1.566,0,0,0-1.49-.79,1.628,1.628,0,0,0-1.25.54,2.09,2.09,0,0,0-.54,1.38H52.5Zm-.44-5.36-1.62,1.76H49.6l1.11-1.76Z" fill="#fff"/>
          <path id="Tracé_29" data-name="Tracé 29" d="M59.32,94.57a2.555,2.555,0,0,1,.83,1.84H59.09a1.95,1.95,0,0,0-.44-1,1.381,1.381,0,0,0-1.11-.4,1.54,1.54,0,0,0-1.5,1.02,4.133,4.133,0,0,0-.29,1.63,3.179,3.179,0,0,0,.41,1.65,1.416,1.416,0,0,0,1.3.67,1.431,1.431,0,0,0,1.08-.42,2.262,2.262,0,0,0,.55-1.14h1.06a2.572,2.572,0,0,1-2.78,2.49,2.508,2.508,0,0,1-2.04-.93,3.549,3.549,0,0,1-.76-2.33,3.951,3.951,0,0,1,.83-2.67,2.687,2.687,0,0,1,2.12-.96,2.826,2.826,0,0,1,1.79.54Z" fill="#fff"/>
          <path id="Tracé_30" data-name="Tracé 30" d="M65.97,94.87a3.271,3.271,0,0,1,.86,2.47,4.141,4.141,0,0,1-.76,2.6,2.756,2.756,0,0,1-2.36,1.03,2.641,2.641,0,0,1-2.12-.91,3.632,3.632,0,0,1-.79-2.44A3.919,3.919,0,0,1,61.63,95a2.755,2.755,0,0,1,2.22-.97,2.9,2.9,0,0,1,2.11.84Zm-.68,4.33a4.094,4.094,0,0,0,.4-1.83,3.3,3.3,0,0,0-.29-1.48,1.619,1.619,0,0,0-1.58-.9,1.549,1.549,0,0,0-1.44.77,3.6,3.6,0,0,0-.45,1.85,3.045,3.045,0,0,0,.45,1.73,1.586,1.586,0,0,0,1.43.69,1.492,1.492,0,0,0,1.48-.82Z" fill="#fff"/>
          <path id="Tracé_31" data-name="Tracé 31" d="M67.89,96.71h3.06v1.12H67.89Z" fill="#fff"/>
          <path id="Tracé_32" data-name="Tracé 32" d="M76.63,94.57a2.555,2.555,0,0,1,.83,1.84H76.4a1.95,1.95,0,0,0-.44-1,1.381,1.381,0,0,0-1.11-.4,1.54,1.54,0,0,0-1.5,1.02,4.133,4.133,0,0,0-.29,1.63,3.179,3.179,0,0,0,.41,1.65,1.416,1.416,0,0,0,1.3.67,1.431,1.431,0,0,0,1.08-.42,2.262,2.262,0,0,0,.55-1.14h1.06a2.572,2.572,0,0,1-2.78,2.49,2.508,2.508,0,0,1-2.04-.93,3.549,3.549,0,0,1-.76-2.33,3.951,3.951,0,0,1,.83-2.67,2.687,2.687,0,0,1,2.12-.96,2.826,2.826,0,0,1,1.79.54Z" fill="#fff"/>
          <path id="Tracé_33" data-name="Tracé 33" d="M83.28,94.87a3.271,3.271,0,0,1,.86,2.47,4.141,4.141,0,0,1-.76,2.6,2.756,2.756,0,0,1-2.36,1.03,2.641,2.641,0,0,1-2.12-.91,3.632,3.632,0,0,1-.79-2.44A3.919,3.919,0,0,1,78.94,95a2.755,2.755,0,0,1,2.22-.97,2.9,2.9,0,0,1,2.11.84ZM82.6,99.2a4.094,4.094,0,0,0,.4-1.83,3.3,3.3,0,0,0-.29-1.48,1.619,1.619,0,0,0-1.58-.9,1.549,1.549,0,0,0-1.44.77,3.6,3.6,0,0,0-.45,1.85,3.045,3.045,0,0,0,.45,1.73,1.586,1.586,0,0,0,1.43.69,1.492,1.492,0,0,0,1.48-.82Z" fill="#fff"/>
          <path id="Tracé_34" data-name="Tracé 34" d="M85.49,94.22h1.04v.92a2.939,2.939,0,0,1,.98-.82,2.554,2.554,0,0,1,1.15-.25,1.884,1.884,0,0,1,1.87.97,3.417,3.417,0,0,1,.27,1.52v4.18H89.69V96.63a2.162,2.162,0,0,0-.18-.96,1.063,1.063,0,0,0-1.06-.61,2.272,2.272,0,0,0-.64.08,1.656,1.656,0,0,0-.79.54,1.763,1.763,0,0,0-.36.67,4.212,4.212,0,0,0-.08.98v3.41h-1.1V94.22Z" fill="#fff"/>
          <path id="Tracé_35" data-name="Tracé 35" d="M96.73,94.57a2.555,2.555,0,0,1,.83,1.84H96.5a1.95,1.95,0,0,0-.44-1,1.381,1.381,0,0,0-1.11-.4,1.54,1.54,0,0,0-1.5,1.02,4.133,4.133,0,0,0-.29,1.63,3.179,3.179,0,0,0,.41,1.65,1.416,1.416,0,0,0,1.3.67,1.431,1.431,0,0,0,1.08-.42,2.262,2.262,0,0,0,.55-1.14h1.06a2.852,2.852,0,0,1-.91,1.89,2.59,2.59,0,0,1-1.69.6l-.43.59a1.5,1.5,0,0,1,.46-.05.986.986,0,0,1,.7.25.9.9,0,0,1,.27.7,1.082,1.082,0,0,1-.36.8,1.629,1.629,0,0,1-1.12.33,2.69,2.69,0,0,1-.67-.09,5.006,5.006,0,0,1-.52-.17l.21-.49a2.487,2.487,0,0,0,.36.12,2.066,2.066,0,0,0,.45.07.937.937,0,0,0,.39-.07.471.471,0,0,0,.32-.46.44.44,0,0,0-.16-.34.6.6,0,0,0-.43-.14.9.9,0,0,0-.24.02,1.766,1.766,0,0,0-.25.08l-.21-.25.66-.89a2,2,0,0,1-1.51-.69A3.762,3.762,0,0,1,92,97.66a3.951,3.951,0,0,1,.83-2.67,2.687,2.687,0,0,1,2.12-.96,2.826,2.826,0,0,1,1.79.54Z" fill="#fff"/>
          <path id="Tracé_36" data-name="Tracé 36" d="M99.75,94.22v4.33a1.89,1.89,0,0,0,.15.81,1.063,1.063,0,0,0,1.06.58,1.506,1.506,0,0,0,1.52-1.02,4.1,4.1,0,0,0,.22-1.5v-3.2h1.1v6.52h-1.03v-.96a1.967,1.967,0,0,1-.51.63,2.264,2.264,0,0,1-1.49.51,1.912,1.912,0,0,1-1.86-.93,2.8,2.8,0,0,1-.27-1.33V94.23h1.12Z" fill="#fff"/>
          <path id="Tracé_37" data-name="Tracé 37" d="M108.95,94.25h1.07v.87a2.592,2.592,0,0,1,.72-.69,2.361,2.361,0,0,1,1.31-.36,2.461,2.461,0,0,1,1.89.85,3.476,3.476,0,0,1,.77,2.43,3.7,3.7,0,0,1-1.12,3.04,2.554,2.554,0,0,1-1.65.58,2.285,2.285,0,0,1-1.24-.32,2.669,2.669,0,0,1-.65-.63v3.33h-1.1V94.26Zm4.12,5.11a3.055,3.055,0,0,0,.51-1.92,3.574,3.574,0,0,0-.23-1.34,1.652,1.652,0,0,0-3.12.06,4.525,4.525,0,0,0-.23,1.55,3.254,3.254,0,0,0,.23,1.28,1.662,1.662,0,0,0,2.84.37Z" fill="#fff"/>
          <path id="Tracé_38" data-name="Tracé 38" d="M119.47,96.79a.577.577,0,0,0,.5-.32.964.964,0,0,0,.07-.42.9.9,0,0,0-.4-.82,2.143,2.143,0,0,0-1.14-.25,1.449,1.449,0,0,0-1.21.46,1.576,1.576,0,0,0-.26.76h-1.02a1.876,1.876,0,0,1,.78-1.68,3.151,3.151,0,0,1,1.74-.47,3.569,3.569,0,0,1,1.87.44,1.494,1.494,0,0,1,.71,1.36V99.6a.433.433,0,0,0,.07.27.34.34,0,0,0,.29.1h.16a1.25,1.25,0,0,0,.19-.03v.81a2.48,2.48,0,0,1-.39.09,3.262,3.262,0,0,1-.37.02.889.889,0,0,1-.82-.4,1.568,1.568,0,0,1-.19-.6,2.7,2.7,0,0,1-.96.76,3.045,3.045,0,0,1-1.38.32,2.039,2.039,0,0,1-1.48-.55,1.857,1.857,0,0,1-.58-1.38,1.759,1.759,0,0,1,.57-1.4A2.658,2.658,0,0,1,117.7,97l1.75-.22Zm-2.31,2.96a1.3,1.3,0,0,0,.82.27,2.465,2.465,0,0,0,1.12-.27,1.494,1.494,0,0,0,.91-1.45v-.88a1.566,1.566,0,0,1-.52.21,4.83,4.83,0,0,1-.62.12l-.66.08a2.581,2.581,0,0,0-.9.25.963.963,0,0,0-.51.91.916.916,0,0,0,.35.75Z" fill="#fff"/>
          <path id="Tracé_39" data-name="Tracé 39" d="M122.94,94.22h1.04v1.12a2.416,2.416,0,0,1,.63-.8,1.645,1.645,0,0,1,1.15-.47h.1c.05,0,.13.01.25.02v1.16a1.1,1.1,0,0,0-.18-.02h-.18a1.567,1.567,0,0,0-1.27.53,1.822,1.822,0,0,0-.44,1.23v3.75h-1.1V94.22Z" fill="#fff"/>
          <path id="Tracé_40" data-name="Tracé 40" d="M130.94,91.8h1.22v8.94h-1.22Z" fill="#fff"/>
          <path id="Tracé_41" data-name="Tracé 41" d="M133.98,94.22h1.04v.92a2.939,2.939,0,0,1,.98-.82,2.554,2.554,0,0,1,1.15-.25,1.9,1.9,0,0,1,1.88.97,3.417,3.417,0,0,1,.27,1.52v4.18h-1.11V96.63a2.162,2.162,0,0,0-.18-.96,1.063,1.063,0,0,0-1.06-.61,2.272,2.272,0,0,0-.64.08,1.656,1.656,0,0,0-.79.54,1.763,1.763,0,0,0-.36.67,4.212,4.212,0,0,0-.08.98v3.41h-1.1V94.22Z" fill="#fff"/>
          <path id="Tracé_42" data-name="Tracé 42" d="M141.13,92.4h1.11v1.82h1.04v.89h-1.04v4.25a.472.472,0,0,0,.23.46,1.084,1.084,0,0,0,.43.07h.17a.822.822,0,0,0,.21-.02v.87a2.7,2.7,0,0,1-.39.08,3.1,3.1,0,0,1-.44.02,1.19,1.19,0,0,1-1.04-.39,1.757,1.757,0,0,1-.27-1.02V95.12h-.88v-.89h.88V92.41Z" fill="#fff"/>
          <path id="Tracé_43" data-name="Tracé 43" d="M148.4,94.4a2.581,2.581,0,0,1,.99.84,3,3,0,0,1,.44,1.15,7.929,7.929,0,0,1,.1,1.44h-4.74a2.834,2.834,0,0,0,.46,1.6,1.556,1.556,0,0,0,1.35.6,1.73,1.73,0,0,0,1.36-.57,1.916,1.916,0,0,0,.4-.76h1.08a2.261,2.261,0,0,1-.28.8,2.766,2.766,0,0,1-.54.72,2.539,2.539,0,0,1-1.23.66,3.966,3.966,0,0,1-.89.1,2.683,2.683,0,0,1-2.05-.89,3.481,3.481,0,0,1-.84-2.48,3.707,3.707,0,0,1,.85-2.55,2.8,2.8,0,0,1,2.21-.98,2.916,2.916,0,0,1,1.34.33Zm.39,2.56a2.861,2.861,0,0,0-.31-1.14,1.566,1.566,0,0,0-1.49-.79,1.664,1.664,0,0,0-1.26.54,2.041,2.041,0,0,0-.54,1.38h3.59Z" fill="#fff"/>
          <path id="Tracé_44" data-name="Tracé 44" d="M151.34,94.22h1.04v1.12a2.288,2.288,0,0,1,.63-.8,1.645,1.645,0,0,1,1.15-.47h.1c.05,0,.13.01.25.02v1.16a1.1,1.1,0,0,0-.18-.02h-.18a1.581,1.581,0,0,0-1.27.53,1.822,1.822,0,0,0-.44,1.23v3.75h-1.1V94.22Z" fill="#fff"/>
          <path id="Tracé_45" data-name="Tracé 45" d="M155.46,94.22h1.04v.92a2.939,2.939,0,0,1,.98-.82,2.554,2.554,0,0,1,1.15-.25,1.9,1.9,0,0,1,1.88.97,3.417,3.417,0,0,1,.27,1.52v4.18h-1.11V96.63a2.162,2.162,0,0,0-.18-.96,1.063,1.063,0,0,0-1.06-.61,2.272,2.272,0,0,0-.64.08,1.656,1.656,0,0,0-.79.54,1.763,1.763,0,0,0-.36.67,4.212,4.212,0,0,0-.08.98v3.41h-1.1V94.22Z" fill="#fff"/>
          <path id="Tracé_46" data-name="Tracé 46" d="M166.41,94.4a2.581,2.581,0,0,1,.99.84,3,3,0,0,1,.44,1.15,7.929,7.929,0,0,1,.1,1.44H163.2a2.914,2.914,0,0,0,.46,1.6,1.556,1.556,0,0,0,1.35.6,1.73,1.73,0,0,0,1.36-.57,1.916,1.916,0,0,0,.4-.76h1.08a2.261,2.261,0,0,1-.28.8,2.766,2.766,0,0,1-.54.72,2.539,2.539,0,0,1-1.23.66,3.966,3.966,0,0,1-.89.1,2.683,2.683,0,0,1-2.05-.89,3.481,3.481,0,0,1-.84-2.48,3.707,3.707,0,0,1,.85-2.55,2.8,2.8,0,0,1,2.21-.98,2.916,2.916,0,0,1,1.34.33Zm.39,2.56a2.861,2.861,0,0,0-.31-1.14,1.566,1.566,0,0,0-1.49-.79,1.628,1.628,0,0,0-1.25.54,2.09,2.09,0,0,0-.54,1.38h3.59Z" fill="#fff"/>
          <path id="Tracé_47" data-name="Tracé 47" d="M169.54,92.4h1.11v1.82h1.04v.89h-1.04v4.25a.472.472,0,0,0,.23.46,1.084,1.084,0,0,0,.43.07h.17a.822.822,0,0,0,.21-.02v.87a2.7,2.7,0,0,1-.39.08,3.026,3.026,0,0,1-.44.02,1.19,1.19,0,0,1-1.04-.39,1.757,1.757,0,0,1-.27-1.02V95.12h-.88v-.89h.88V92.41Z" fill="#fff"/>
          <path id="Tracé_48" data-name="Tracé 48" d="M176.3,98.78a3.791,3.791,0,0,1,1.58-1.51l1.17-.67a5.19,5.19,0,0,0,1.1-.78,1.616,1.616,0,0,0,.5-1.16,1.6,1.6,0,0,0-.46-1.21,1.67,1.67,0,0,0-1.22-.45,1.6,1.6,0,0,0-1.56.86,3.179,3.179,0,0,0-.26,1.27h-1.11a3.876,3.876,0,0,1,.42-1.86A2.636,2.636,0,0,1,178.97,92a2.586,2.586,0,0,1,2.88,2.61,2.462,2.462,0,0,1-.74,1.79,7.171,7.171,0,0,1-1.53,1.05l-.83.46a5.43,5.43,0,0,0-.94.63,2.309,2.309,0,0,0-.77,1.17h4.76v1.03h-5.98a5.092,5.092,0,0,1,.47-1.96Z" fill="#fff"/>
          <path id="Tracé_49" data-name="Tracé 49" d="M188.19,93.42a6.23,6.23,0,0,1,.58,2.95,7.19,7.19,0,0,1-.53,2.94,2.6,2.6,0,0,1-2.51,1.67,2.506,2.506,0,0,1-2.34-1.36,6.2,6.2,0,0,1-.64-3.05,7.7,7.7,0,0,1,.38-2.55,2.628,2.628,0,0,1,2.6-1.98,2.581,2.581,0,0,1,2.45,1.39Zm-1.1,5.81a5.408,5.408,0,0,0,.51-2.81,6.773,6.773,0,0,0-.37-2.44,1.391,1.391,0,0,0-1.42-.96,1.481,1.481,0,0,0-1.42.91,6.258,6.258,0,0,0-.45,2.68,6.571,6.571,0,0,0,.29,2.14,1.56,1.56,0,0,0,2.86.49Z" fill="#fff"/>
          <path id="Tracé_50" data-name="Tracé 50" d="M195.12,93.42a6.23,6.23,0,0,1,.58,2.95,7.19,7.19,0,0,1-.53,2.94,2.6,2.6,0,0,1-2.51,1.67,2.506,2.506,0,0,1-2.34-1.36,6.2,6.2,0,0,1-.64-3.05,7.7,7.7,0,0,1,.38-2.55,2.62,2.62,0,0,1,2.6-1.98,2.581,2.581,0,0,1,2.45,1.39Zm-1.1,5.81a5.408,5.408,0,0,0,.51-2.81,6.773,6.773,0,0,0-.37-2.44,1.391,1.391,0,0,0-1.42-.96,1.481,1.481,0,0,0-1.42.91,6.258,6.258,0,0,0-.45,2.68,6.571,6.571,0,0,0,.29,2.14,1.56,1.56,0,0,0,2.86.49Z" fill="#fff"/>
          <path id="Tracé_51" data-name="Tracé 51" d="M202.05,93.42a6.23,6.23,0,0,1,.58,2.95,7.19,7.19,0,0,1-.53,2.94,2.6,2.6,0,0,1-2.51,1.67,2.506,2.506,0,0,1-2.34-1.36,6.2,6.2,0,0,1-.64-3.05,7.7,7.7,0,0,1,.38-2.55,2.62,2.62,0,0,1,2.6-1.98,2.581,2.581,0,0,1,2.45,1.39Zm-1.1,5.81a5.408,5.408,0,0,0,.51-2.81,6.773,6.773,0,0,0-.37-2.44,1.391,1.391,0,0,0-1.42-.96,1.481,1.481,0,0,0-1.42.91,6.258,6.258,0,0,0-.45,2.68,6.571,6.571,0,0,0,.29,2.14,1.56,1.56,0,0,0,2.86.49Z" fill="#fff"/>
        </g>
      </g>
      <g id="Groupe_11" data-name="Groupe 11">
        <path id="Tracé_52" data-name="Tracé 52" d="M13.26,47.9l1.13,6.88h.04l1.21-6.88h2.7l1.28,6.88h.04l1.17-6.88h2.38l-2.09,9.68H18.29L17.01,50.7h-.04l-1.21,6.88H12.88L10.77,47.9h2.48Z" fill="#7e7e7f"/>
        <path id="Tracé_53" data-name="Tracé 53" d="M26.27,53.9a5.727,5.727,0,0,0,.06.84,2.53,2.53,0,0,0,.21.72,1.3,1.3,0,0,0,.38.5.881.881,0,0,0,.58.19,1.011,1.011,0,0,0,.92-.45,3.5,3.5,0,0,0,.4-1.37h2.23a3.87,3.87,0,0,1-.9,2.57,3.416,3.416,0,0,1-2.61.88,4.161,4.161,0,0,1-2.11-.45,2.784,2.784,0,0,1-1.12-1.19,4.567,4.567,0,0,1-.44-1.66c-.05-.61-.08-1.22-.08-1.84a12.553,12.553,0,0,1,.14-1.87,4.517,4.517,0,0,1,.54-1.6,2.978,2.978,0,0,1,1.16-1.12,4.164,4.164,0,0,1,2.02-.41,3.953,3.953,0,0,1,1.77.35,2.611,2.611,0,0,1,1.09.99,4.3,4.3,0,0,1,.54,1.55,12.607,12.607,0,0,1,.14,2.03v.56H26.28v.77Zm2.47-3.23a2.69,2.69,0,0,0-.19-.72,1,1,0,0,0-.38-.45,1.162,1.162,0,0,0-.62-.15,1.08,1.08,0,0,0-.62.17,1.227,1.227,0,0,0-.39.45,2.062,2.062,0,0,0-.21.62,3.993,3.993,0,0,0-.06.68v.38h2.54c-.01-.37-.04-.7-.07-.98Z" fill="#7e7e7f"/>
        <path id="Tracé_54" data-name="Tracé 54" d="M34.97,44.74v4.07h.04a2.784,2.784,0,0,1,.89-.86,2.369,2.369,0,0,1,1.2-.29,2.436,2.436,0,0,1,2.25,1.2,7.921,7.921,0,0,1,.72,3.9,7.737,7.737,0,0,1-.72,3.87A2.452,2.452,0,0,1,37.1,57.8a2.711,2.711,0,0,1-1.27-.27,2.568,2.568,0,0,1-.93-.95h-.04v1.03H32.48V44.76h2.48Zm.24,10.39a1.028,1.028,0,0,0,1.07.8,1.006,1.006,0,0,0,1.05-.8,8.843,8.843,0,0,0,.24-2.38,8.843,8.843,0,0,0-.24-2.38,1.013,1.013,0,0,0-1.05-.8,1.035,1.035,0,0,0-1.07.8,8.843,8.843,0,0,0-.24,2.38A8.843,8.843,0,0,0,35.21,55.13Z" fill="#7e7e7f"/>
        <path id="Tracé_55" data-name="Tracé 55" d="M43.3,54.74a1.525,1.525,0,0,0,.33,1.02,1.187,1.187,0,0,0,.96.39,1.407,1.407,0,0,0,.92-.29,1.053,1.053,0,0,0,.34-.86.905.905,0,0,0-.27-.71,2.23,2.23,0,0,0-.63-.39l-1.75-.63a3.344,3.344,0,0,1-1.55-1.02,2.613,2.613,0,0,1-.52-1.68,3.179,3.179,0,0,1,.2-1.12,2.4,2.4,0,0,1,.63-.93,3.294,3.294,0,0,1,1.11-.63,4.89,4.89,0,0,1,1.63-.23,3.677,3.677,0,0,1,2.5.72,2.579,2.579,0,0,1,.81,2.03v.4H45.78a2.032,2.032,0,0,0-.24-1.11.974.974,0,0,0-.85-.35,1.359,1.359,0,0,0-.82.26.91.91,0,0,0-.35.78,1.032,1.032,0,0,0,.23.65,1.844,1.844,0,0,0,.85.49l1.49.5a3.372,3.372,0,0,1,1.66,1.04,2.832,2.832,0,0,1,.49,1.74,3.081,3.081,0,0,1-.27,1.34,2.685,2.685,0,0,1-.75.95,3.04,3.04,0,0,1-1.13.54,5.964,5.964,0,0,1-1.45.16,6.5,6.5,0,0,1-1.74-.2,2.57,2.57,0,0,1-1.1-.59,2.127,2.127,0,0,1-.57-.96,4.551,4.551,0,0,1-.16-1.27v-.34H43.3v.32Z" fill="#7e7e7f"/>
        <path id="Tracé_56" data-name="Tracé 56" d="M52.05,44.59v2.12H49.57V44.59Zm0,3.31v9.68H49.57V47.9Z" fill="#7e7e7f"/>
        <path id="Tracé_57" data-name="Tracé 57" d="M56.82,45.13V47.9h1.44v1.69H56.82v5.24a1.519,1.519,0,0,0,.17.82.827.827,0,0,0,.71.24h.29a1.115,1.115,0,0,0,.27-.03v1.73a6.956,6.956,0,0,0-.8.03c-.26.02-.53.03-.82.03a5.515,5.515,0,0,1-1.18-.1,1.188,1.188,0,0,1-.7-.4,1.741,1.741,0,0,1-.33-.78,6.838,6.838,0,0,1-.09-1.22V49.61H53.08V47.92h1.26V45.15h2.48Z" fill="#7e7e7f"/>
        <path id="Tracé_58" data-name="Tracé 58" d="M61.25,53.9a5.727,5.727,0,0,0,.06.84,2.53,2.53,0,0,0,.21.72,1.3,1.3,0,0,0,.38.5.881.881,0,0,0,.58.19,1.011,1.011,0,0,0,.92-.45,3.5,3.5,0,0,0,.4-1.37h2.23a3.87,3.87,0,0,1-.9,2.57,3.416,3.416,0,0,1-2.61.88,4.161,4.161,0,0,1-2.11-.45,2.784,2.784,0,0,1-1.12-1.19,4.567,4.567,0,0,1-.44-1.66c-.05-.61-.08-1.22-.08-1.84a12.553,12.553,0,0,1,.14-1.87,4.517,4.517,0,0,1,.54-1.6,2.978,2.978,0,0,1,1.16-1.12,4.164,4.164,0,0,1,2.02-.41,3.953,3.953,0,0,1,1.77.35,2.611,2.611,0,0,1,1.09.99,4.3,4.3,0,0,1,.54,1.55,12.607,12.607,0,0,1,.14,2.03v.56H61.26v.77Zm2.47-3.23a2.69,2.69,0,0,0-.19-.72,1,1,0,0,0-.38-.45,1.162,1.162,0,0,0-.62-.15,1.08,1.08,0,0,0-.62.17,1.227,1.227,0,0,0-.39.45,2.063,2.063,0,0,0-.21.62,3.993,3.993,0,0,0-.06.68v.38h2.54c-.01-.37-.04-.7-.07-.98Z" fill="#7e7e7f"/>
        <path id="Tracé_59" data-name="Tracé 59" d="M72.07,50.69a2.348,2.348,0,0,0-.16-.62,1.1,1.1,0,0,0-.33-.45.93.93,0,0,0-.58-.17,1.136,1.136,0,0,0-1.17.82,4.171,4.171,0,0,0-.2,1.03c-.04.41-.05.9-.05,1.47,0,.6.02,1.11.05,1.54a4.257,4.257,0,0,0,.2,1.05,1.2,1.2,0,0,0,.4.6,1.165,1.165,0,0,0,.68.19.969.969,0,0,0,.92-.54,3.908,3.908,0,0,0,.29-1.73H74.5a4.429,4.429,0,0,1-.85,2.91,3.55,3.55,0,0,1-2.84,1,5.638,5.638,0,0,1-1.63-.22,2.341,2.341,0,0,1-1.15-.81,3.867,3.867,0,0,1-.69-1.57,10.52,10.52,0,0,1-.23-2.44,9.092,9.092,0,0,1,.29-2.47,4.011,4.011,0,0,1,.81-1.57,2.844,2.844,0,0,1,1.24-.82,4.988,4.988,0,0,1,1.58-.23,3.26,3.26,0,0,1,2.6,1.01,4.04,4.04,0,0,1,.87,2.74H72.12a5.363,5.363,0,0,0-.05-.7Z" fill="#7e7e7f"/>
        <path id="Tracé_60" data-name="Tracé 60" d="M75.77,50.64a3.283,3.283,0,0,1,.27-1.41,2.469,2.469,0,0,1,.73-.92,2.98,2.98,0,0,1,1.08-.5,5.559,5.559,0,0,1,1.32-.15,5.96,5.96,0,0,1,1.8.22,2.414,2.414,0,0,1,1.06.61,2.06,2.06,0,0,1,.51.94,5.063,5.063,0,0,1,.14,1.2v5.09a7.107,7.107,0,0,0,.06,1.06,3.643,3.643,0,0,0,.24.81H80.6a2.151,2.151,0,0,1-.19-.5l-.12-.51h-.04a2.128,2.128,0,0,1-1,.98,4.066,4.066,0,0,1-1.47.22,2.6,2.6,0,0,1-1.1-.22,1.891,1.891,0,0,1-.72-.62,2.884,2.884,0,0,1-.4-.89,3.721,3.721,0,0,1-.13-.98,4.491,4.491,0,0,1,.14-1.18,2.186,2.186,0,0,1,1.2-1.43,5.642,5.642,0,0,1,1.11-.41l1.4-.38a1.492,1.492,0,0,0,.77-.4,1.126,1.126,0,0,0,.22-.74,1.347,1.347,0,0,0-.26-.87,1.093,1.093,0,0,0-.89-.32,1.053,1.053,0,0,0-.86.34,1.389,1.389,0,0,0-.29.92v.27H75.74v-.23Zm4,2.42a3.884,3.884,0,0,1-.52.17,1.962,1.962,0,0,0-1.08.54,1.5,1.5,0,0,0-.32,1.03,1.881,1.881,0,0,0,.22.95.757.757,0,0,0,.72.4,1.934,1.934,0,0,0,.52-.08,1.5,1.5,0,0,0,.5-.26,1.406,1.406,0,0,0,.51-1.15V52.75a2.478,2.478,0,0,1-.54.32Z" fill="#7e7e7f"/>
        <path id="Tracé_61" data-name="Tracé 61" d="M86.82,47.9v1.3h.04a3.439,3.439,0,0,1,.92-1.12,2.076,2.076,0,0,1,1.31-.42h.22a2.079,2.079,0,0,1,.23.03v2.38l-.39-.03c-.13-.01-.26,0-.39,0a2.426,2.426,0,0,0-.65.09,1.649,1.649,0,0,0-.59.3,1.538,1.538,0,0,0-.43.54,1.846,1.846,0,0,0-.16.82V57.6H84.45V47.92h2.38Z" fill="#7e7e7f"/>
        <path id="Tracé_62" data-name="Tracé 62" d="M92.93,44.74v4.07h.04a2.784,2.784,0,0,1,.89-.86,2.369,2.369,0,0,1,1.2-.29,2.436,2.436,0,0,1,2.25,1.2,7.921,7.921,0,0,1,.72,3.9,7.737,7.737,0,0,1-.72,3.87,2.452,2.452,0,0,1-2.25,1.17,2.711,2.711,0,0,1-1.27-.27,2.568,2.568,0,0,1-.93-.95h-.04v1.03H90.44V44.76h2.48Zm.24,10.39a1.028,1.028,0,0,0,1.07.8,1.006,1.006,0,0,0,1.05-.8,8.842,8.842,0,0,0,.24-2.38,8.843,8.843,0,0,0-.24-2.38,1.013,1.013,0,0,0-1.05-.8,1.035,1.035,0,0,0-1.07.8,8.842,8.842,0,0,0-.24,2.38A8.843,8.843,0,0,0,93.17,55.13Z" fill="#7e7e7f"/>
        <path id="Tracé_63" data-name="Tracé 63" d="M99.32,50.55a4.118,4.118,0,0,1,.65-1.59,2.8,2.8,0,0,1,1.18-.97,4.335,4.335,0,0,1,1.79-.33,4.569,4.569,0,0,1,1.85.3,2.627,2.627,0,0,1,1.17.96,4.278,4.278,0,0,1,.61,1.6,12.193,12.193,0,0,1,.18,2.23,10.935,10.935,0,0,1-.2,2.2,4.118,4.118,0,0,1-.65,1.59,2.759,2.759,0,0,1-1.18.95,4.707,4.707,0,0,1-1.79.31,4.773,4.773,0,0,1-1.85-.28,2.522,2.522,0,0,1-1.17-.94,4.212,4.212,0,0,1-.61-1.6,12.155,12.155,0,0,1-.18-2.22,11.006,11.006,0,0,1,.2-2.2Zm2.32,3.56a4.53,4.53,0,0,0,.17,1.08,1.467,1.467,0,0,0,.41.7,1,1,0,0,0,.72.25,1.046,1.046,0,0,0,1.04-.79,8.458,8.458,0,0,0,.29-2.61,8.458,8.458,0,0,0-.29-2.61,1.046,1.046,0,0,0-1.04-.79,1,1,0,0,0-.72.25,1.551,1.551,0,0,0-.41.7,4.529,4.529,0,0,0-.17,1.08c-.02.42-.04.88-.04,1.37S101.61,53.69,101.64,54.11Z" fill="#7e7e7f"/>
        <path id="Tracé_64" data-name="Tracé 64" d="M110.46,47.9v1.13h.04a2.486,2.486,0,0,1,1.03-1.05,3.057,3.057,0,0,1,1.44-.33,2.477,2.477,0,0,1,1.83.65,2.9,2.9,0,0,1,.64,2.11v7.18h-2.48V50.91a1.63,1.63,0,0,0-.25-1.05,1.007,1.007,0,0,0-.81-.3c-.88,0-1.31.53-1.31,1.6v6.43h-2.48V47.91h2.38Z" fill="#7e7e7f"/>
        <path id="Tracé_65" data-name="Tracé 65" d="M119.6,57.59h-2.38V54.78h2.38Z" fill="#7e7e7f"/>
        <path id="Tracé_66" data-name="Tracé 66" d="M126.02,50.69a2.348,2.348,0,0,0-.16-.62,1.1,1.1,0,0,0-.33-.45.93.93,0,0,0-.58-.17,1.136,1.136,0,0,0-1.17.82,4.171,4.171,0,0,0-.2,1.03c-.04.42-.05.9-.05,1.47,0,.6.02,1.11.05,1.54a4.257,4.257,0,0,0,.2,1.05,1.2,1.2,0,0,0,.4.6,1.165,1.165,0,0,0,.68.19.969.969,0,0,0,.92-.54,3.908,3.908,0,0,0,.29-1.73h2.38a4.375,4.375,0,0,1-.86,2.91,3.526,3.526,0,0,1-2.83,1,5.638,5.638,0,0,1-1.63-.22,2.341,2.341,0,0,1-1.15-.81,3.867,3.867,0,0,1-.69-1.57,10.52,10.52,0,0,1-.23-2.44,9.092,9.092,0,0,1,.29-2.47,4.011,4.011,0,0,1,.81-1.57,2.844,2.844,0,0,1,1.24-.82,4.988,4.988,0,0,1,1.58-.23,3.26,3.26,0,0,1,2.6,1.01,4.04,4.04,0,0,1,.87,2.74h-2.38a5.363,5.363,0,0,0-.05-.7Z" fill="#7e7e7f"/>
        <path id="Tracé_67" data-name="Tracé 67" d="M129.61,50.55a4.118,4.118,0,0,1,.65-1.59,2.878,2.878,0,0,1,1.18-.97,4.336,4.336,0,0,1,1.79-.33,4.569,4.569,0,0,1,1.85.3,2.627,2.627,0,0,1,1.17.96,4.278,4.278,0,0,1,.61,1.6,12.194,12.194,0,0,1,.18,2.23,10.935,10.935,0,0,1-.2,2.2,4.118,4.118,0,0,1-.65,1.59,2.688,2.688,0,0,1-1.18.95,4.707,4.707,0,0,1-1.79.31,4.773,4.773,0,0,1-1.85-.28,2.522,2.522,0,0,1-1.17-.94,4.212,4.212,0,0,1-.61-1.6,12.156,12.156,0,0,1-.18-2.22,11.007,11.007,0,0,1,.2-2.2Zm2.32,3.56a4.53,4.53,0,0,0,.17,1.08,1.551,1.551,0,0,0,.41.7,1,1,0,0,0,.72.25,1.046,1.046,0,0,0,1.04-.79,8.458,8.458,0,0,0,.29-2.61,8.458,8.458,0,0,0-.29-2.61,1.046,1.046,0,0,0-1.04-.79,1,1,0,0,0-.72.25,1.647,1.647,0,0,0-.41.7,4.53,4.53,0,0,0-.17,1.08c-.02.42-.04.88-.04,1.37S131.9,53.69,131.93,54.11Z" fill="#7e7e7f"/>
        <path id="Tracé_68" data-name="Tracé 68" d="M140.75,47.9v.99h.04a2.832,2.832,0,0,1,1.05-.95,3.178,3.178,0,0,1,1.4-.29,2.478,2.478,0,0,1,1.45.4,1.9,1.9,0,0,1,.78,1.15h.04a2.17,2.17,0,0,1,.93-1.16,2.864,2.864,0,0,1,1.52-.39,2.177,2.177,0,0,1,1.83.75,3.42,3.42,0,0,1,.58,2.15v7.04h-2.48V50.82a1.74,1.74,0,0,0-.22-.94.836.836,0,0,0-.75-.32,1.2,1.2,0,0,0-.95.4,1.878,1.878,0,0,0-.35,1.26v6.37h-2.48V50.82a1.74,1.74,0,0,0-.22-.94.836.836,0,0,0-.75-.32,1.2,1.2,0,0,0-.95.4,1.878,1.878,0,0,0-.35,1.26v6.37h-2.48V47.91h2.38Z" fill="#7e7e7f"/>
      </g>
    </g>
  </g>
</svg>
