<svg id="b" xmlns="http://www.w3.org/2000/svg" width="625.418" height="192.145" viewBox="0 0 625.418 192.145">
  <g id="c">
    <g id="Groupe_1" data-name="Groupe 1">
      <path id="Tracé_1" data-name="Tracé 1" d="M49.961,0V38.251H18.271V0H0V93.612H18.271V54.427h31.69V93.612H68.233V0ZM167.495,27.612l11.437,34.059H155.671ZM159.886,0,125.826,93.612h19.069l5.65-16.563h33.262l5.513,16.563h19.069L174.216,0Zm157.38,0L284.277,40.757V0H266.005V93.612h18.271V65.476l12.1-14.467,24.058,42.6h21.3L308.471,37.2,339.478,0Zm82.175,93.612h18.271V0H399.441ZM485.535,0V93.612h60.737V77.3H503.806V0ZM607.146,93.612h18.271V0H607.146Z" fill="#1e1e1c"/>
      <path id="Tracé_2" data-name="Tracé 2" d="M417.874,108.021V83.371c0-4.556-1.435-8.247-4.01-10.73-2.483-2.392-5.923-3.691-10.252-3.691a14.364,14.364,0,0,0-11.368,5.035V69.428h-4.078v38.593h4.078V84.077c0-7.29,4.01-11.528,10.89-11.528s10.639,4.078,10.639,11.528v23.944h4.078Zm-77.323-19.3c0,8-1.435,16.175-10.89,16.175s-10.89-8.179-10.89-16.175,1.435-16.175,10.89-16.175,10.89,8.156,10.89,16.175m4.078,21.461V69.428h-4.078v4.967c-3.372-4.488-7.131-5.445-11.46-5.445a13.49,13.49,0,0,0-9.455,3.372c-3.919,3.919-4.967,10.32-4.967,16.4s1.048,12.485,4.967,16.4a13.49,13.49,0,0,0,9.455,3.372c4.329,0,8.088-.957,11.46-5.445v6.88c0,7.609-3.6,13.373-11.687,13.373-4.875,0-6.971-1.526-10-4.238l-2.711,2.734c4.078,3.6,6.971,5.126,12.735,5.126,10,0,15.765-7.04,15.765-16.722m-71.24-40.757h-4.078v38.593h4.078Zm.478-18.408h-5.035v5.035h5.035Zm-44.835,46.02c0-7.518-4.875-9.523-11.277-10.093l-6.242-.57c-5.445-.478-7.837-2.483-7.837-6.493,0-4.716,3.531-7.45,9.842-7.45a17.821,17.821,0,0,1,10.8,3.281l2.711-2.711a22.721,22.721,0,0,0-13.533-4.078c-8.407,0-13.852,4.329-13.852,10.958,0,6.014,3.85,9.455,11.619,10.093l6.4.57c5.035.478,7.359,2.483,7.359,6.493,0,5.194-4.078,7.837-11.6,7.837-5.513,0-9.614-1.526-12.644-4.716l-2.8,2.8c3.919,3.759,8.885,5.536,15.606,5.536,9.455,0,15.446-4.4,15.446-11.459m-72.607-10.73H133.711a17.969,17.969,0,0,1,1.367-7.29,10.949,10.949,0,0,1,20,0c.957,2.392,1.207,3.6,1.367,7.29m4.078,3.281V87.768c0-11.778-5.855-18.818-15.446-18.818s-15.446,7.359-15.446,19.775,5.764,19.775,16.4,19.775c6.4,0,10-2,13.92-5.923l-3.03-2.392c-3.281,3.281-6.083,4.648-10.639,4.648-8.156,0-12.576-5.445-12.576-15.219h26.815Zm-76.3-.889c0,8-1.435,16.175-10.89,16.175s-10.89-8.179-10.89-16.175,1.435-16.175,10.89-16.175,10.89,8.156,10.89,16.175m4.078,19.3v-57H84.228V74.395C80.856,69.906,77.1,68.95,72.791,68.95a13.491,13.491,0,0,0-9.455,3.372c-3.919,3.919-4.967,10.32-4.967,16.4s1.048,12.485,4.967,16.4a13.491,13.491,0,0,0,9.455,3.372c4.329,0,8.088-.957,11.437-5.445v4.966Z" transform="translate(74.61 65.215)" fill="#1e1e1c"/>
    </g>
  </g>
</svg>
