<?xml version="1.0" encoding="UTF-8"?><svg xmlns="http://www.w3.org/2000/svg" viewBox="0 0 90 105.43"><defs><style>.f,.g{fill:none;}.g{stroke:#cda433;stroke-linecap:round;stroke-linejoin:round;stroke-width:3px;}</style></defs><g id="a"/><g id="b"><g id="c"><g><rect class="f" width="90" height="105.43"/><g id="d"><g id="e"><g><path class="g" d="M59,23.76c5.1,0,9.3-4.2,9.3-9.3s-4.2-9.3-9.3-9.3-9.3,4.2-9.3,9.3,4.1,9.3,9.3,9.3h0Z"/><path class="g" d="M28.2,27.76c4.2,0,7.6-3.4,7.6-7.6s-3.4-7.6-7.6-7.6-7.6,3.4-7.6,7.6,3.4,7.6,7.6,7.6Z"/><path class="g" d="M35.8,89.36c0,1.6-1.3,2.9-2.9,2.9-1,0-1.8-.5-2.3-1.3v-29.1c0-1.3-1-2.3-2.3-2.3s-2.3,1-2.3,2.3v29.2c-.5,.8-1.4,1.3-2.3,1.3-1.6,0-2.9-1.3-2.9-2.9V40.56c0-1.3-1.1-2.3-2.3-2.3s-2.3,1-2.3,2.3v20.9c-2.4-.7-4.2-2.4-4.2-3.9v-22.2c0-1.6,1.3-2.9,2.9-2.9h7.5s5.3,7.4,6.1,7.4,6.1-7.4,6.1-7.4h1.5l-.3,56.9h0Zm37.3-25.6v-25.4c0-1.3-1-2.3-2.3-2.3s-2.3,1-2.3,2.3v58c0,2.1-1.7,3.8-3.8,3.8-1.3,0-2.5-.7-3.2-1.8V63.56c0-1.3-1-2.3-2.3-2.3s-2.3,1-2.3,2.3v34.9c-.7,1.1-1.9,1.8-3.2,1.8-2.1,0-3.8-1.7-3.8-3.8V38.46c0-1.3-1-2.3-2.3-2.3s-2.3,1-2.3,2.3v25.5c-3.8-.8-4.4-3.5-4.4-5.2v-26.6c0-2.1,1.7-3.9,3.8-3.9h7.7s6.2,8.8,7,8.8,7-8.8,7-8.8h7.7c2.1,0,3.9,1.7,3.9,3.9v26.5c-.5,1.7-1.1,4.3-4.9,5.1h0Z"/></g></g></g></g></g></g></svg>