<svg xmlns="http://www.w3.org/2000/svg" width="68.73" height="98.05" viewBox="0 0 68.73 98.05">
  <g id="b" transform="translate(-0.01)">
    <g id="c">
      <g id="Groupe_36" data-name="Groupe 36">
        <path id="Tracé_76" data-name="Tracé 76" d="M48.67,20.11a9.305,9.305,0,1,0,0,.01Z" fill="none" stroke="#cda433" stroke-linecap="round" stroke-linejoin="round" stroke-width="3"/>
        <path id="Tracé_77" data-name="Tracé 77" d="M17.92,24.08a7.64,7.64,0,1,0-7.64-7.64A7.652,7.652,0,0,0,17.92,24.08Z" fill="none" stroke="#cda433" stroke-linecap="round" stroke-linejoin="round" stroke-width="3"/>
        <path id="Tracé_78" data-name="Tracé 78" d="M25.45,85.72a2.859,2.859,0,0,1-2.86,2.86,2.788,2.788,0,0,1-2.33-1.28V58.15a2.34,2.34,0,0,0-4.68,0V87.3a2.8,2.8,0,0,1-2.33,1.28,2.859,2.859,0,0,1-2.86-2.86V36.94a2.34,2.34,0,1,0-4.68,0V57.88c-2.4-.66-4.2-2.39-4.2-3.89V31.74a2.859,2.859,0,0,1,2.86-2.86h7.5s5.26,7.41,6.06,7.41,6.06-7.42,6.06-7.42h1.48V85.71ZM62.77,60.14V34.67a2.34,2.34,0,0,0-4.68,0V92.7a3.858,3.858,0,0,1-3.85,3.85,3.8,3.8,0,0,1-3.22-1.79V59.9a2.34,2.34,0,1,0-4.68,0V94.76a3.8,3.8,0,0,1-3.22,1.79,3.858,3.858,0,0,1-3.85-3.85V34.67a2.34,2.34,0,0,0-4.68,0V60.14c-3.79-.78-4.43-3.47-4.43-5.19V28.48a3.858,3.858,0,0,1,3.85-3.85h7.72s6.17,8.82,6.97,8.82,6.97-8.82,6.97-8.82h7.72a3.858,3.858,0,0,1,3.85,3.85V54.95c0,1.71-.65,4.4-4.43,5.19Z" fill="none" stroke="#cda433" stroke-linecap="round" stroke-linejoin="round" stroke-width="3"/>
      </g>
    </g>
  </g>
</svg>
