<svg xmlns="http://www.w3.org/2000/svg" width="109.058" height="84.277" viewBox="0 0 109.058 84.277">
  <g id="b" transform="translate(0 0.028)">
    <g id="c">
      <g id="Groupe_37" data-name="Groupe 37">
        <path id="Tracé_79" data-name="Tracé 79" d="M88.73,37.63h5.34a7.857,7.857,0,0,0,3.52-1.07,6.39,6.39,0,0,1,3.41-.99,6.536,6.536,0,0,1,1.62,12.87,6.444,6.444,0,0,1-4.94-.73,8.3,8.3,0,0,0-3.61-1.13H88.73V63.91H45.12V46.58h5.34a8.3,8.3,0,0,1,3.61,1.13,6.51,6.51,0,0,0,9.63-3.87,6.552,6.552,0,0,0-6.31-8.27,6.376,6.376,0,0,0-3.74,1.21,5.453,5.453,0,0,1-3.19.85H45.12V20.3H62.45V14.96a5.453,5.453,0,0,0-.85-3.19,6.376,6.376,0,0,1-1.21-3.74A6.536,6.536,0,0,1,73.26,6.41a6.444,6.444,0,0,1-.73,4.94,8.3,8.3,0,0,0-1.13,3.61V20.3H88.73V37.63Z" fill="none" stroke="#cda433" stroke-linejoin="round" stroke-width="3"/>
        <path id="Tracé_80" data-name="Tracé 80" d="M45.12,63.92H27.78v5.34a5.453,5.453,0,0,0,.85,3.19,6.376,6.376,0,0,1,1.21,3.74,6.536,6.536,0,0,1-12.87,1.62,6.444,6.444,0,0,1,.73-4.94,8.3,8.3,0,0,0,1.13-3.61V63.92H1.5V20.3H18.83l-.17,5.25a8.3,8.3,0,0,1-1.13,3.61,6.51,6.51,0,0,0,3.87,9.63,6.552,6.552,0,0,0,8.27-6.31,6.376,6.376,0,0,0-1.21-3.74,5.453,5.453,0,0,1-.85-3.19l.17-5.25H45.11" fill="none" stroke="#cda433" stroke-linejoin="round" stroke-width="3"/>
      </g>
    </g>
  </g>
</svg>
