<?xml version="1.0" encoding="UTF-8"?><svg xmlns="http://www.w3.org/2000/svg" viewBox="0 0 90.12 105.43"><defs><style>.f,.g{fill:none;}.g{stroke:#cda433;stroke-linejoin:round;stroke-width:3px;}</style></defs><g id="a"/><g id="b"><g id="c"><g><rect class="f" width="90" height="105.43"/><g id="d"><g id="e"><g><path class="g" d="M73.49,49.08h4.28c.89,0,2.1-.4,2.83-.89,.81-.48,1.78-.81,2.75-.81,3.39,0,5.98,3.15,5.09,6.71-.48,1.78-1.94,3.23-3.8,3.72-1.45,.4-2.91,.08-3.96-.57-.73-.48-2.02-.89-2.91-.89h-4.28v13.98H38.26v-13.98h4.28c.89,0,2.18,.48,2.91,.89,1.13,.65,2.5,.97,3.96,.57,1.78-.4,3.31-1.94,3.8-3.72,.89-3.47-1.7-6.71-5.09-6.71-1.13,0-2.18,.4-2.99,.97-.73,.57-1.7,.65-2.59,.65h-4.28v-13.9h13.98v-4.28c0-.89-.16-1.86-.65-2.59-.65-.89-.97-1.86-.97-2.99,0-3.39,3.15-5.98,6.71-5.09,1.78,.48,3.31,1.94,3.72,3.8,.32,1.45,.08,2.91-.57,3.96-.48,.73-.89,2.02-.89,2.91v4.28h13.98c-.08,0-.08,13.98-.08,13.98Z"/><path class="g" d="M38.26,70.33h-13.98v4.28c0,.89,.16,1.86,.73,2.59,.65,.89,.97,1.86,.97,2.99,0,3.39-3.15,5.98-6.71,5.09-1.78-.48-3.23-1.94-3.72-3.8-.4-1.45-.08-2.91,.57-3.96,.48-.73,.89-2.02,.89-2.91v-4.28H3.03V35.1h13.98l-.16,4.2c0,.89-.48,2.18-.89,2.91-.65,1.13-.97,2.5-.57,3.96,.4,1.78,1.94,3.31,3.72,3.8,3.56,.89,6.71-1.7,6.71-5.09,0-1.13-.4-2.18-.97-2.99-.48-.73-.73-1.7-.73-2.59l.16-4.2h13.98"/></g></g></g></g></g></g></svg>