<?xml version="1.0" encoding="UTF-8"?><svg xmlns="http://www.w3.org/2000/svg" viewBox="0 0 90 105.43"><defs><style>.f,.g,.h{fill:none;}.g,.h{stroke:#cda433;stroke-miterlimit:10;stroke-width:3px;}.h{stroke-linecap:square;}</style></defs><g id="a"/><g id="b"><g id="c"><g><rect class="f" width="90" height="105.43"/><g id="d"><g id="e"><g><path class="h" d="M64.07,91.68v-5.65c0-1.67,1.11-3.24,2.78-3.7l3.52-1.02h10l3.8,1.02c1.67,.46,2.87,1.94,2.87,3.7v5.55"/><path class="h" d="M33.52,40.31v-5.65c0-1.76,1.11-3.24,2.78-3.7l3.52-1.02h10l3.8,1.02c1.67,.46,2.87,1.94,2.87,3.7v5.55"/><path class="h" d="M2.98,91.68v-5.65c0-1.67,1.11-3.24,2.78-3.7l3.52-1.02h10l3.8,1.02c1.67,.46,2.87,1.94,2.87,3.7v5.55"/><line class="g" x1="42.04" y1="66.23" x2="28.99" y2="79.46"/><line class="g" x1="48.7" y1="66.23" x2="61.75" y2="79.46"/><line class="g" x1="45" y1="43.09" x2="45" y2="59.66"/><circle class="g" cx="44.91" cy="19.2" r="5.46"/><circle class="g" cx="75.55" cy="70.76" r="5.46"/><circle class="g" cx="14.45" cy="70.76" r="5.46"/></g></g></g></g></g></g></svg>