<svg id="b" xmlns="http://www.w3.org/2000/svg" width="93.78" height="87.19" viewBox="0 0 93.78 87.19">
  <g id="c">
    <g id="Groupe_38" data-name="Groupe 38">
      <path id="Tracé_81" data-name="Tracé 81" d="M67.52,85.69V79.62a4.122,4.122,0,0,1,3.02-3.97l3.83-1.06H85.15l4.07,1.08a4.129,4.129,0,0,1,3.06,3.98v6.03" fill="none" stroke="#cda433" stroke-linecap="square" stroke-width="3"/>
      <path id="Tracé_82" data-name="Tracé 82" d="M34.51,30.22V24.15a4.122,4.122,0,0,1,3.02-3.97l3.83-1.06H52.14l4.07,1.08a4.129,4.129,0,0,1,3.06,3.98v6.03" fill="none" stroke="#cda433" stroke-linecap="square" stroke-width="3"/>
      <path id="Tracé_83" data-name="Tracé 83" d="M1.5,85.69V79.62a4.122,4.122,0,0,1,3.02-3.97l3.83-1.06H19.13l4.07,1.08a4.129,4.129,0,0,1,3.06,3.98v6.03" fill="none" stroke="#cda433" stroke-linecap="square" stroke-width="3"/>
      <line id="Ligne_2" data-name="Ligne 2" x1="14.1" y2="14.39" transform="translate(29.64 58.15)" fill="none" stroke="#cda433" stroke-width="3"/>
      <line id="Ligne_3" data-name="Ligne 3" x2="14.11" y2="14.39" transform="translate(50.88 58.15)" fill="none" stroke="#cda433" stroke-width="3"/>
      <line id="Ligne_4" data-name="Ligne 4" x1="0.01" y2="17.82" transform="translate(46.89 33.25)" fill="none" stroke="#cda433" stroke-width="3"/>
      <circle id="Ellipse_4" data-name="Ellipse 4" cx="5.87" cy="5.87" r="5.87" transform="translate(40.95 1.5)" fill="none" stroke="#cda433" stroke-width="3"/>
      <circle id="Ellipse_5" data-name="Ellipse 5" cx="5.87" cy="5.87" r="5.87" transform="translate(74.03 57.23)" fill="none" stroke="#cda433" stroke-width="3"/>
      <circle id="Ellipse_6" data-name="Ellipse 6" cx="5.87" cy="5.87" r="5.87" transform="translate(8.01 57.23)" fill="none" stroke="#cda433" stroke-width="3"/>
    </g>
  </g>
</svg>
