<svg id="ENDLAND" xmlns="http://www.w3.org/2000/svg" width="38.724" height="25.558" viewBox="0 0 38.724 25.558">
  <rect id="Rectangle_26" data-name="Rectangle 26" width="38.724" height="25.558" fill="#dc1b29"/>
  <rect id="Rectangle_27" data-name="Rectangle 27" width="16.784" height="10.24" transform="translate(0 15.318)" fill="#2c3281"/>
  <rect id="Rectangle_28" data-name="Rectangle 28" width="16.884" height="10.24" transform="translate(21.84 15.318)" fill="#2c3281"/>
  <rect id="Rectangle_29" data-name="Rectangle 29" width="16.784" height="10.234" fill="#2c3281"/>
  <rect id="Rectangle_30" data-name="Rectangle 30" width="16.884" height="10.234" transform="translate(21.84)" fill="#2c3281"/>
  <path id="Tracé_94" data-name="Tracé 94" d="M16.784,27.69V37.93H15V30.661L2.877,37.93H0V33.764l7.147-4.282H0V27.69Z" transform="translate(0 -12.372)" fill="#fff"/>
  <path id="Tracé_95" data-name="Tracé 95" d="M56.364,0V4.055L49.05,8.442h7.313v1.792H39.48V0h1.787V7.225L53.3.006,53.3,0Z" transform="translate(-17.64)" fill="#fff"/>
  <path id="Tracé_96" data-name="Tracé 96" d="M56.364,29.482h-7.23l7.23,4.337v4.11H53.4L41.267,30.65v7.28H39.48V27.69H56.364Z" transform="translate(-17.64 -12.372)" fill="#fff"/>
  <path id="Tracé_97" data-name="Tracé 97" d="M57.8,0V1.306L45.9,8.442H42.69l.337-.2L56.758.006,56.769,0Z" transform="translate(-19.074)" fill="#dc1b29"/>
  <path id="Tracé_98" data-name="Tracé 98" d="M15,30.93,1.084,39.377H0V38.033l11.794-7.1Z" transform="translate(0 -13.819)" fill="#dc1b29"/>
  <path id="Tracé_99" data-name="Tracé 99" d="M16.784,0V10.234H0V8.442H7.225L0,4.11V0H2.971L15,7.214V0Z" fill="#fff"/>
  <path id="Tracé_100" data-name="Tracé 100" d="M60.193,36.291v1.92L48.3,31.079l-.249-.149h3.2Z" transform="translate(-21.469 -13.819)" fill="#dc1b29"/>
  <path id="Tracé_101" data-name="Tracé 101" d="M12.132,9.385h-3.2L0,4.03V2.11Z" transform="translate(0 -0.943)" fill="#dc1b29"/>
</svg>
