<svg xmlns="http://www.w3.org/2000/svg" width="40.718" height="40.718" viewBox="0 0 40.718 40.718">
  <g id="Groupe_195" data-name="Groupe 195" transform="translate(-1049.782 -3858.141)">
    <path id="Tracé_107" data-name="Tracé 107" d="M36.193,2.828a1.7,1.7,0,0,1,1.7,1.7V36.193a1.7,1.7,0,0,1-1.7,1.7H4.524a1.7,1.7,0,0,1-1.7-1.7V4.524a1.7,1.7,0,0,1,1.7-1.7H36.193m0-2.828H4.524A4.523,4.523,0,0,0,0,4.524V36.193a4.523,4.523,0,0,0,4.524,4.524H36.193a4.523,4.523,0,0,0,4.524-4.524V4.524A4.523,4.523,0,0,0,36.193,0Z" transform="translate(1049.782 3858.141)" fill="#fff"/>
    <path id="Tracé_108" data-name="Tracé 108" d="M38.661,38.657H33.939V30.615c0-2.206-.837-3.438-2.584-3.438-1.9,0-2.89,1.284-2.89,3.438v8.042H23.918V23.343h4.547v2.064a5.346,5.346,0,0,1,4.62-2.534c3.252,0,5.576,1.985,5.576,6.085ZM18.495,21.335a2.828,2.828,0,1,1,2.8-2.828A2.817,2.817,0,0,1,18.495,21.335ZM16.148,38.657h4.745V23.343H16.148Z" transform="translate(1042.965 3851.328)" fill="#fff" fill-rule="evenodd"/>
  </g>
</svg>
