<?xml version="1.0" encoding="UTF-8"?><svg xmlns="http://www.w3.org/2000/svg" viewBox="0 0 90 105.43"><defs><style>.f,.g{fill:none;}.g{stroke:#cda433;stroke-linecap:round;stroke-linejoin:round;stroke-width:3px;}</style></defs><g id="a"/><g id="b"><g id="c"><g><rect class="f" width="90" height="105.43"/><g id="d"><g id="e"><g><path class="g" d="M39.07,84.75h23.18c0,5.84-4.73,10.48-10.48,10.48h-2.13c-5.84,0-10.57-4.73-10.57-10.48h0Z"/><g><path class="g" d="M64.38,66.67c1.21-1.02,2.32-2.04,3.34-3.34l3.71,1.67,2.97-5.19-3.34-2.32c.56-1.39,.93-2.97,1.21-4.45l4.08-.37v-5.93l-4.08-.37c-.28-1.58-.65-3.06-1.21-4.45l3.34-2.32-2.97-5.19-3.71,1.67c-1.02-1.21-2.04-2.32-3.34-3.34l1.67-3.71-5.19-2.97-2.32,3.25c-1.39-.56-2.97-.93-4.45-1.21"/><path class="g" d="M50.66,36.81c16.51,2.23,16.51,23.46,0,25.69"/></g><line class="g" x1="50.66" y1="10.2" x2="50.66" y2="18.17"/><line class="g" x1="30.91" y1="15.48" x2="34.89" y2="22.34"/><line class="g" x1="16.44" y1="29.95" x2="23.3" y2="33.94"/><line class="g" x1="11.15" y1="49.7" x2="19.13" y2="49.7"/><line class="g" x1="16.44" y1="69.45" x2="23.3" y2="65.46"/><path class="g" d="M39.9,67.6h20.96c1.58,0,2.87,1.3,2.87,2.87h0c0,1.58-1.3,2.87-2.87,2.87h-20.96c-1.58,0-2.87-1.3-2.87-2.87h0c0-1.58,1.21-2.87,2.87-2.87Z"/><path class="g" d="M39.9,73.35h20.96c1.58,0,2.87,1.3,2.87,2.87h0c0,1.58-1.3,2.87-2.87,2.87h-20.96c-1.58,0-2.87-1.3-2.87-2.87h0c0-1.58,1.21-2.87,2.87-2.87Z"/><path class="g" d="M39.9,79.09h20.96c1.58,0,2.87,1.3,2.87,2.87h0c0,1.58-1.3,2.87-2.87,2.87h-20.96c-1.58,0-2.87-1.3-2.87-2.87h0c0-1.58,1.21-2.87,2.87-2.87Z"/><path class="g" d="M36.28,65.19c-4.54-3.89-7.42-9.74-7.42-16.23,0-11.87,9.64-21.51,21.51-21.51"/></g></g></g></g></g></g></svg>