<svg id="b" xmlns="http://www.w3.org/2000/svg" width="73.23" height="94.72" viewBox="0 0 73.23 94.72">
  <g id="c">
    <g id="Groupe_41" data-name="Groupe 41">
      <path id="Tracé_85" data-name="Tracé 85" d="M31.62,81.88H56.58A11.344,11.344,0,0,1,45.24,93.22H42.97A11.344,11.344,0,0,1,31.63,81.88h0Z" fill="none" stroke="#cda433" stroke-linecap="round" stroke-linejoin="round" stroke-width="3"/>
      <g id="Groupe_40" data-name="Groupe 40">
        <path id="Tracé_86" data-name="Tracé 86" d="M58.89,62.44a23.964,23.964,0,0,0,3.56-3.56l3.97,1.8,3.21-5.56-3.55-2.54a23.26,23.26,0,0,0,1.29-4.85l4.36-.43V40.88l-4.36-.43a23.1,23.1,0,0,0-1.29-4.85l3.55-2.54L66.42,27.5l-3.97,1.8a23.964,23.964,0,0,0-3.56-3.56l1.8-3.97-5.56-3.21-2.54,3.55a23.26,23.26,0,0,0-4.85-1.29" fill="none" stroke="#cda433" stroke-linecap="round" stroke-linejoin="round" stroke-width="3"/>
        <path id="Tracé_87" data-name="Tracé 87" d="M44.1,30.25c17.82,2.41,17.82,25.28,0,27.7" fill="none" stroke="#cda433" stroke-linecap="round" stroke-linejoin="round" stroke-width="3"/>
      </g>
      <line id="Ligne_6" data-name="Ligne 6" y2="8.55" transform="translate(44.1 1.5)" fill="none" stroke="#cda433" stroke-linecap="round" stroke-linejoin="round" stroke-width="3"/>
      <line id="Ligne_7" data-name="Ligne 7" x2="4.28" y2="7.41" transform="translate(22.8 7.21)" fill="none" stroke="#cda433" stroke-linecap="round" stroke-linejoin="round" stroke-width="3"/>
      <line id="Ligne_8" data-name="Ligne 8" x2="7.41" y2="4.28" transform="translate(7.21 22.8)" fill="none" stroke="#cda433" stroke-linecap="round" stroke-linejoin="round" stroke-width="3"/>
      <line id="Ligne_9" data-name="Ligne 9" x2="8.55" transform="translate(1.5 44.1)" fill="none" stroke="#cda433" stroke-linecap="round" stroke-linejoin="round" stroke-width="3"/>
      <line id="Ligne_10" data-name="Ligne 10" y1="4.27" x2="7.41" transform="translate(7.21 61.12)" fill="none" stroke="#cda433" stroke-linecap="round" stroke-linejoin="round" stroke-width="3"/>
      <rect id="Rectangle_12" data-name="Rectangle 12" width="28.84" height="6.23" rx="3.11" transform="translate(29.35 63.37)" fill="none" stroke="#cda433" stroke-linecap="round" stroke-linejoin="round" stroke-width="3"/>
      <rect id="Rectangle_13" data-name="Rectangle 13" width="28.84" height="6.23" rx="3.11" transform="translate(29.35 69.59)" fill="none" stroke="#cda433" stroke-linecap="round" stroke-linejoin="round" stroke-width="3"/>
      <rect id="Rectangle_14" data-name="Rectangle 14" width="28.84" height="6.23" rx="3.11" transform="translate(29.35 75.82)" fill="none" stroke="#cda433" stroke-linecap="round" stroke-linejoin="round" stroke-width="3"/>
      <path id="Tracé_88" data-name="Tracé 88" d="M28.56,60.77a23.18,23.18,0,0,1,15.2-40.68" fill="none" stroke="#cda433" stroke-linecap="round" stroke-linejoin="round" stroke-width="3"/>
    </g>
  </g>
</svg>
