<svg id="c" xmlns="http://www.w3.org/2000/svg" width="171.169" height="56.739" viewBox="0 0 171.169 56.739">
  <g id="Groupe_32" data-name="Groupe 32">
    <g id="Groupe_30" data-name="Groupe 30" transform="translate(72.679 47.963)">
      <path id="Tracé_58" data-name="Tracé 58" d="M225.6,153.97a3.535,3.535,0,0,1,3.547-3.66,8.181,8.181,0,0,1,1.44.229c.219,0,.3-.229.515-.229.255,0,.235.293.235.4l-.045,1.424a.345.345,0,0,1-.322.367c-.184,0-.261-.139-.383-.441a1.765,1.765,0,0,0-.49-.744,1.335,1.335,0,0,0-.944-.332,2.342,2.342,0,0,0-2.165,2.619,1.965,1.965,0,0,0,1.965,2.216,2.479,2.479,0,0,0,1.521-.551.6.6,0,0,1,.367-.174.212.212,0,0,1,.219.229.7.7,0,0,1-.174.406,3.286,3.286,0,0,1-2.481,1.066,2.654,2.654,0,0,1-2.8-2.822Z" transform="translate(-225.6 -149.849)" fill="#fff"/>
      <path id="Tracé_59" data-name="Tracé 59" d="M249.817,159.68c0,.406-.648.8-1.266.8-.561,0-.741-.322-.741-.66a4.37,4.37,0,0,1,.071-.66h-.035A2.232,2.232,0,0,1,246,160.482c-.838,0-1.353-.654-1.353-1.691a2.908,2.908,0,0,1,2.664-3.041,1.828,1.828,0,0,1,1.24.451.978.978,0,0,1,.654-.451.245.245,0,0,1,.271.3l-.419,3.2c-.035.258.052.332.158.332.168,0,.29-.11.419-.11.113,0,.184.064.184.213Zm-1.74-2.474a.757.757,0,0,0-.741-.883c-.8,0-1.379,1.269-1.379,2.39,0,.615.209.947.561.947.683,0,1.424-1.3,1.521-2.1l.045-.358Z" transform="translate(-238.513 -153.537)" fill="#fff"/>
      <path id="Tracé_60" data-name="Tracé 60" d="M263.04,160.366a.3.3,0,0,1-.306-.367l.383-2.729c.035-.293.026-.461-.087-.6l-.1-.119a.352.352,0,0,1-.106-.229.389.389,0,0,1,.322-.348l.857-.213a.659.659,0,0,1,.184-.035c.193,0,.271.139.255.322l-.113.937h.035c.332-.689.96-1.269,1.45-1.269.322,0,.5.238.5.59,0,.461-.316.838-.612.838s-.306-.377-.541-.377c-.383,0-.847.818-.954,1.627l-.229,1.672a.325.325,0,0,1-.332.3h-.612Z" transform="translate(-250.769 -153.516)" fill="#fff"/>
      <path id="Tracé_61" data-name="Tracé 61" d="M275,155.351l.316-2.3a.749.749,0,0,0-.087-.606l-.1-.119a.318.318,0,0,1-.1-.229.352.352,0,0,1,.316-.341l.9-.2a1.08,1.08,0,0,1,.229-.029.231.231,0,0,1,.245.3l-.428,3.2c-.035.238.035.322.164.322.168,0,.28-.1.419-.1.113,0,.184.064.184.2,0,.412-.654.809-1.318.809-.8,0-.786-.59-.741-.908Zm.516-5.039a.782.782,0,0,1,.831-.783c.377,0,.648.2.648.561a.781.781,0,0,1-.822.8.575.575,0,0,1-.654-.58Z" transform="translate(-259.078 -149.321)" fill="#fff"/>
      <path id="Tracé_62" data-name="Tracé 62" d="M286.536,159.554l.287-1.994c.1-.725-.026-1.076-.428-1.076-.638,0-1.353,1.086-1.537,2.539l-.139,1.047a.325.325,0,0,1-.332.3h-.612a.3.3,0,0,1-.3-.367l.358-2.713c.035-.312.042-.486-.087-.635l-.087-.1a.329.329,0,0,1,.2-.57l.812-.213a1,1,0,0,1,.245-.045c.164,0,.28.093.255.313l-.132,1.012h.035a2.2,2.2,0,0,1,1.852-1.324c.873,0,1.327.57,1.169,1.646l-.271,1.856c-.035.248.042.332.164.332.167,0,.28-.11.419-.11.113,0,.184.064.184.213,0,.406-.664.809-1.318.8-.8-.01-.8-.59-.741-.908Z" transform="translate(-264.829 -153.523)" fill="#fff"/>
      <path id="Tracé_63" data-name="Tracé 63" d="M304.7,155.438c0,.332-.235.532-.622.532a4.03,4.03,0,0,1-.561-.055,1.241,1.241,0,0,1,.271.783c0,.966-.954,1.672-2.2,1.672A2.387,2.387,0,0,1,301,158.3a.6.6,0,0,0-.316.461c0,.174.132.277.393.277.367,0,1.015-.174,1.582-.174.821,0,1.292.387,1.292,1.1,0,1.111-1.25,1.894-3.057,1.894-1.128,0-1.93-.341-1.93-.863a.563.563,0,0,1,.561-.57c.245,0,.287.229.628.506a1.911,1.911,0,0,0,1.153.293c.8,0,1.434-.377,1.434-.854,0-.267-.219-.4-.664-.4s-1,.1-1.44.1c-.648,0-.986-.283-.986-.744a1.442,1.442,0,0,1,.934-1.16A1.246,1.246,0,0,1,299.83,157a1.936,1.936,0,0,1,2.158-1.711,2.244,2.244,0,0,1,1.163.293c.77-.019,1.041-.506,1.292-.506a.33.33,0,0,1,.261.358Zm-2.062,1.3a.779.779,0,0,0-.751-.883c-.551,0-.918.477-.918,1.131,0,.532.287.863.751.863A.994.994,0,0,0,302.639,156.733Z" transform="translate(-275.326 -153.083)" fill="#fff"/>
      <path id="Tracé_64" data-name="Tracé 64" d="M327,149.563a.571.571,0,0,1-.551.606c-.506,0-.367-.654-.8-.654-.316,0-.541.348-.628,1l-.087.66h.979a.244.244,0,0,1,.254.277c0,.248-.138.412-.348.412h-.97l-.47,3.557a.321.321,0,0,1-.332.3h-.612a.3.3,0,0,1-.306-.367l.47-3.492h-.5a.25.25,0,0,1-.261-.277.374.374,0,0,1,.358-.412h.49l.045-.312a2.267,2.267,0,0,1,2.229-1.984c.628,0,1.047.277,1.047.68Z" transform="translate(-291.513 -148.88)" fill="#fff"/>
      <path id="Tracé_65" data-name="Tracé 65" d="M333.8,158.478a2.724,2.724,0,0,1,2.761-2.738,1.933,1.933,0,0,1,2.113,2,2.728,2.728,0,0,1-2.761,2.729A1.932,1.932,0,0,1,333.8,158.478Zm3.563-.615c0-.908-.393-1.488-.986-1.488-.725,0-1.26.863-1.26,1.968,0,.9.377,1.5.986,1.5.715,0,1.256-.863,1.256-1.975Z" transform="translate(-298.942 -153.53)" fill="#fff"/>
      <path id="Tracé_66" data-name="Tracé 66" d="M351.13,160.366a.3.3,0,0,1-.306-.367l.383-2.729c.035-.293.026-.461-.087-.6l-.1-.119a.352.352,0,0,1-.106-.229.389.389,0,0,1,.322-.348l.857-.213a.659.659,0,0,1,.184-.035c.193,0,.271.139.254.322l-.113.937h.035c.332-.689.96-1.269,1.45-1.269.322,0,.5.238.5.59,0,.461-.316.838-.612.838s-.306-.377-.541-.377c-.383,0-.847.818-.954,1.627l-.229,1.672a.325.325,0,0,1-.332.3h-.612Z" transform="translate(-310.48 -153.516)" fill="#fff"/>
      <path id="Tracé_67" data-name="Tracé 67" d="M373.447,159.68c0,.406-.648.8-1.266.8-.561,0-.741-.322-.741-.66a4.368,4.368,0,0,1,.071-.66h-.035a2.231,2.231,0,0,1-1.843,1.324c-.838,0-1.353-.654-1.353-1.691a2.908,2.908,0,0,1,2.664-3.041,1.828,1.828,0,0,1,1.24.451.978.978,0,0,1,.654-.451.245.245,0,0,1,.271.3l-.419,3.2c-.035.258.052.332.158.332.168,0,.29-.11.419-.11.113,0,.184.064.184.213Zm-1.74-2.474a.757.757,0,0,0-.741-.883c-.8,0-1.379,1.269-1.379,2.39,0,.615.209.947.561.947.683,0,1.424-1.3,1.521-2.1l.045-.358Z" transform="translate(-322.314 -153.537)" fill="#fff"/>
      <path id="Tracé_68" data-name="Tracé 68" d="M386.366,155.012l.593-4.439a.771.771,0,0,0-.077-.606l-.1-.129c-.071-.093-.106-.139-.106-.222a.372.372,0,0,1,.316-.348l.892-.2a1.042,1.042,0,0,1,.235-.035.238.238,0,0,1,.245.313l-.709,5.351c-.035.238.035.332.158.332.164,0,.287-.11.419-.11.113,0,.184.064.184.213,0,.406-.654.809-1.318.8-.8-.01-.776-.59-.735-.908Z" transform="translate(-334.563 -148.982)" fill="#fff"/>
      <path id="Tracé_69" data-name="Tracé 69" d="M394.856,155.012l.593-4.439a.771.771,0,0,0-.077-.606l-.1-.129c-.071-.093-.106-.139-.106-.222a.372.372,0,0,1,.316-.348l.892-.2a1.041,1.041,0,0,1,.235-.035.238.238,0,0,1,.245.313l-.709,5.351c-.035.238.035.332.158.332.164,0,.287-.11.419-.11.113,0,.184.064.184.213,0,.406-.654.809-1.318.8-.8-.01-.776-.59-.734-.908Z" transform="translate(-340.318 -148.982)" fill="#fff"/>
    </g>
    <g id="Groupe_31" data-name="Groupe 31">
      <path id="Tracé_70" data-name="Tracé 70" d="M134.086,73.914l-.735-.657c-.934-.921-1.337-1.91-1.337-4.349V34.958q0-1.778-1.6-1.778c-1.337,0-2.674,1.582-3.541,3.3a16.572,16.572,0,0,0-10.225-3.228c-10.293,0-16.975,7.181-16.975,17.922,0,9.816,5.68,15.815,14.169,15.815a14.392,14.392,0,0,0,11.427-5.138v7.065c0,2.571-.267,3.36-1.269,4.349l-.735.657c-.667.66-1,1.053-1,1.714,0,.857.667,1.45,1.872,1.45h9.088c1.2,0,1.939-.593,1.939-1.514,0-.593-.335-.989-1.07-1.646Zm-8.821-19.781a8.837,8.837,0,0,1-8.956,8.763c-5.68,0-9.623-5.006-9.623-13.376S110.362,36.6,116.645,36.6c5.08,0,8.621,3.164,8.621,7.774V54.13Z" transform="translate(-67.56 -22.491)" fill="#fff"/>
      <path id="Tracé_71" data-name="Tracé 71" d="M257.157,36.88c0-.857-.667-1.45-1.872-1.45h-6.214c-1.137,0-1.872.593-1.872,1.514,0,1.646,2.271,1.846,2.271,3.756a10.649,10.649,0,0,1-.6,2.635l-5.145,16.6-7.886-23a1.879,1.879,0,0,0-2-1.514h-1.07a2.016,2.016,0,0,0-2.071,1.514l-7.484,22.522c-4.43-15.541-7.481-24.036-13.924-24.036h-1.956a1.688,1.688,0,0,0-1.675,1.556l-.01.155a1.439,1.439,0,0,0,1.028,1.488c4.3,1.256,6.939,10.016,11.114,24.722l.809,2.848a2.287,2.287,0,0,0,2.339,1.646h1.4a2.13,2.13,0,0,0,2.271-1.646l7.152-21.018L239.313,66.2a2.268,2.268,0,0,0,2.407,1.646h1.469a2.123,2.123,0,0,0,2.207-1.646l7.484-22.864c.8-2.439,1.4-3.3,2.406-4.085l.87-.725A1.97,1.97,0,0,0,257.157,36.88Z" transform="translate(-139.392 -24.016)" fill="#fff"/>
      <path id="Tracé_72" data-name="Tracé 72" d="M391.065,58.418V44.846c0-7.445-4.745-11.466-13.833-11.466-7.017,0-13.634,2.964-13.634,6.917,0,1.978,1.4,2.9,3.141,2.9,4.546,0,2.407-6.456,10.09-6.456,4.478,0,7.484,3.032,7.484,8.106v1.582c-15.238.528-22.522,4.217-22.522,11.727,0,5.667,4.278,8.962,10.828,8.962a16.342,16.342,0,0,0,12.1-5.8h.267v2.307c0,2.175.735,3.36,2.339,3.36a14.729,14.729,0,0,0,5.947-1.978c1.2-.66,1.8-1.253,1.8-1.978,0-2.042-4.011-.593-4.011-4.613Zm-6.749-3.1c0,3.689-4.41,7.645-9.355,7.645-3.743,0-6.35-2.042-6.35-5.6,0-5.338,5.883-7.381,15.705-7.774Z" transform="translate(-245.236 -22.626)" fill="#fff"/>
      <path id="Tracé_73" data-name="Tracé 73" d="M476.053,40.009c-1-.921-1.337-1.846-1.337-4.281V1.714A1.537,1.537,0,0,0,473.112,0a5.841,5.841,0,0,0-1.4.264l-5.28,1.514a1.88,1.88,0,0,0-1.537,1.646c0,.593.267.989.934,1.514l.87.725c1,.789,1.269,1.778,1.269,3.821V35.727c0,2.439-.335,3.36-1.337,4.281l-.667.66c-.8.725-1.07,1.186-1.07,1.714,0,.989.735,1.45,1.872,1.45h9.088c1.2,0,1.939-.461,1.939-1.45,0-.593-.267-.989-1-1.714Z" transform="translate(-315.122)" fill="#fff"/>
      <path id="Tracé_74" data-name="Tracé 74" d="M30.515,45.06c0-6.959-5.58-11.73-13.643-11.73C7.126,33.327,0,40.485,0,50.691S6.72,67.26,16.333,67.26a18.224,18.224,0,0,0,12.838-5.1,3.263,3.263,0,0,0,1.343-2.32,1.292,1.292,0,0,0-1.276-1.392,3.728,3.728,0,0,0-1.881.8,14.209,14.209,0,0,1-8.94,3.18c-6.656,0-11.224-4.507-11.495-12.725H26.549c2.284,0,3.966-1.724,3.966-4.639Zm-9.546,1.392H7.058c.873-6.031,4.5-9.874,9.343-9.874,5.444,0,7.6,3.843,7.6,7.355,0,1.856-1.276,2.519-3.025,2.519Z" transform="translate(0 -22.592)" fill="#fff"/>
      <path id="Tracé_75" data-name="Tracé 75" d="M516.119,117.94a2.919,2.919,0,1,0,2.919,2.919A2.92,2.92,0,0,0,516.119,117.94Z" transform="translate(-347.868 -79.945)" fill="#fff"/>
    </g>
  </g>
</svg>
