<svg id="monogram-cut" xmlns="http://www.w3.org/2000/svg" xmlns:xlink="http://www.w3.org/1999/xlink" width="210.49" height="230.97" viewBox="0 0 210.49 230.97">
  <defs>
    <clipPath id="clip-path">
      <rect id="Rectangle_37" data-name="Rectangle 37" width="210.49" height="230.97" fill="none"/>
    </clipPath>
  </defs>
  <g id="c">
    <g id="Groupe_161" data-name="Groupe 161" clip-path="url(#clip-path)">
      <g id="Groupe_160" data-name="Groupe 160" transform="translate(-8.781)">
        <ellipse id="Ellipse_8" data-name="Ellipse 8" cx="15.935" cy="15.884" rx="15.935" ry="15.884" transform="translate(187.401 155.007)" fill="#fff"/>
        <path id="Tracé_109" data-name="Tracé 109" d="M162.7,222.336l-4.067-3.631c-5.174-5.086-7.392-10.533-7.392-23.972V9.991q0-9.807-8.868-9.8c-6.8,0-13.59,7.368-18.375,15.9C110.809,5.862,92.771,0,71.666,0c-54.185,0-93.8,39.662-93.8,96.221s37.369,89.743,90.8,89.743c29.235,0,39.789-8.852,38.206-16.145-1.782-8.08-9.293-3.35-27.715-3.35-40.849,0-62.807-26.867-62.807-75.757h97.553V194.733c0,14.163-1.476,18.526-7.023,23.972l-4.067,3.631c-3.694,3.631-5.543,5.81-5.543,9.445,0,4.723,3.694,7.989,10.348,7.989h50.261c6.65,0,10.717-3.267,10.717-8.353,0-3.267-1.849-5.446-5.912-9.081ZM96.627,72.716H17.108C22.1,39.295,42.847,18,70.507,18c31.116,0,43.408,21.3,43.408,40.762,0,10.283-7.3,13.958-17.288,13.958Z" transform="translate(22.13)" fill="#fff"/>
      </g>
    </g>
  </g>
</svg>
